<svg width="100" height="100" viewBox="0 0 100 100" fill="none" xmlns="http://www.w3.org/2000/svg">
<path d="M50 16.6666C54.625 16.6666 58.3333 20.375 58.3333 25C58.3333 29.625 54.625 33.3333 50 33.3333C45.375 33.3333 41.6667 29.625 41.6667 25C41.6667 20.375 45.4167 16.6666 50 16.6666ZM87.5 66.6666V58.3333C78.1667 58.3333 70.1667 54.3333 64.1667 47.1666L58.5833 40.5C57.8081 39.5603 56.8344 38.8039 55.7322 38.2852C54.6299 37.7665 53.4265 37.4983 52.2083 37.5H47.9167C45.375 37.5 43.0417 38.5833 41.4583 40.5L35.875 47.1666C29.8333 54.3333 21.8333 58.3333 12.5 58.3333V66.6666C24.0417 66.6666 34.125 61.7916 41.6667 53.125V62.5L25.5 68.9583C22.7083 70.0833 20.8333 72.9166 20.8333 75.8749C20.8333 79.9999 24.1667 83.3333 28.2917 83.3333H37.5V81.2499C37.5 78.4873 38.5975 75.8378 40.551 73.8843C42.5045 71.9308 45.154 70.8333 47.9167 70.8333H60.4167C61.5833 70.8333 62.5 71.75 62.5 72.9166C62.5 74.0833 61.5833 75 60.4167 75H47.9167C44.4583 75 41.6667 77.7916 41.6667 81.2499V83.3333H71.7083C75.8333 83.3333 79.1667 79.9999 79.1667 75.8749C79.1667 72.9166 77.2917 70.0833 74.5 68.9583L58.3333 62.5V53.125C65.875 61.7916 75.9583 66.6666 87.5 66.6666Z" fill="#FFBA00"/>
</svg>
